<?xml version="1.0" encoding="UTF-8" standalone="no"?>
<svg width="18" height="18" viewBox="0 0 122.8799 122.8799" xmlns="http://www.w3.org/2000/svg">
  <path d="M 118.16372,62.773962 C 118.16377,47.665115 105.8208,35.32215 90.711909,35.322152 79.319043,35.322152 69.809967,42.474318 65.672485,52.420129 L 14.038233,52.537499 C 9.0591655,53.247045 5.228038,57.57274 5.228039,62.697651 5.228037,68.07102 9.463127,72.561876 14.771896,72.934118 21.874768,72.937378 17.252392,72.937615 22.105918,72.93999 L 22.105916,80.905574 C 22.105918,81.198612 22.347032,81.433857 22.640022,81.433855 L 35.147991,81.433854 C 35.441028,81.433855 35.676272,81.19861 35.676272,80.905575 L 35.676273,72.945863 C 37.438517,72.946902 42.964931,72.945211 44.020428,72.945862 V 80.905573 C 44.020427,81.198611 44.261544,81.433855 44.554533,81.433855 H 57.068421 C 57.361416,81.433855 57.590782,81.19861 57.590788,80.905573 L 57.590781,72.951735 C 58.827959,72.951946 63.019593,72.957606 65.607945,72.957605 69.704711,82.992723 79.255238,90.21991 90.711909,90.219907 105.8208,90.219925 118.16374,77.882831 118.16372,62.773962 Z M 103.1436,62.932441 C 103.14239,69.79685 97.576324,75.36031 90.711909,75.358268 83.849823,75.357054 78.287342,69.794526 78.28613,62.93244 78.287343,56.070353 83.849823,50.507825 90.711909,50.50666 97.576324,50.504613 103.14239,56.068073 103.1436,62.932441 Z" style="fill: #777"/>
</svg>
